<svg width="16" height="16" viewBox="0 0 16 16" fill="none" xmlns="http://www.w3.org/2000/svg">
<g id="Icon">
<path id="Union" fill-rule="evenodd" clip-rule="evenodd" d="M6.37421 4.78646C8.54674 1.93509 10.8551 1.21094 13.2652 1.21094H14.8946V2.82898C14.8946 5.23906 14.1704 7.54731 11.319 9.71978V11.5189C11.319 12.8314 10.3459 13.5782 9.31618 14.0874L7.93572 14.7776V11.5302L6.24974 9.84425L4.56376 8.15832H1.31628L2.00651 6.78921C2.52701 5.75955 3.27382 4.78646 4.57508 4.78646H6.37421ZM9.45196 5.29564C9.45196 6.04242 10.063 6.65343 10.8098 6.65343C11.5566 6.65343 12.1676 6.04242 12.1676 5.29564C12.1676 4.54885 11.5566 3.93784 10.8098 3.93784C10.063 3.93784 9.45196 4.54885 9.45196 5.29564ZM1.21582 14.8443C1.21582 14.8443 1.73632 11.5177 3.09416 10.1599L3.08284 10.1486L3.61466 9.61679L6.43217 12.4342L5.90035 12.966C4.39541 14.4709 1.21582 14.8443 1.21582 14.8443Z" fill="white"/>
</g>
</svg>
